<?xml version="1.0" encoding="utf-8"?>
<!-- Generator: Adobe Illustrator 24.0.3, SVG Export Plug-In . SVG Version: 6.00 Build 0)  -->
<svg width="116" height="174" viewBox="0 0 116 36" fill="none" xmlns="http://www.w3.org/2000/svg" xmlns:xlink="http://www.w3.org/1999/xlink">
<g clip-path="url(#clip0)">
<path d="M6.82693 16.0413C5.94074 16.0434 5.06362 15.8629 4.25021 15.5112C3.4254 15.1563 2.68164 14.6369 2.06442 13.9848C1.41037 13.2791 0.899906 12.4528 0.5615 11.5521C0.187241 10.5952 0.000110537 9.51555 0.000110537 8.31308C-0.0149375 7.19868 0.1716 6.09075 0.550723 5.04271C0.88998 4.10939 1.4074 3.2509 2.07422 2.51499C2.71027 1.82009 3.48581 1.26723 4.35015 0.892543C5.23437 0.509532 6.18861 0.314681 7.1522 0.320376C7.83326 0.311773 8.51181 0.404557 9.16556 0.595682C9.76728 0.780738 10.3433 1.04078 10.8801 1.36968L11.3141 0.648588H12.1616L12.2596 6.00874H11.3915C11.2608 5.43157 11.0899 4.86423 10.8801 4.31085C10.6877 3.76005 10.4224 3.23746 10.0914 2.75698C9.77429 2.29748 9.36111 1.91238 8.88046 1.62833C8.3941 1.35136 7.8421 1.21057 7.2825 1.22076C6.61852 1.21595 5.96328 1.37228 5.37299 1.67633C4.76412 1.99852 4.24007 2.46013 3.84362 3.02347C3.4367 3.59564 3.116 4.32359 2.88152 5.20731C2.63825 6.17412 2.52069 7.16826 2.53175 8.16514C2.52229 9.06011 2.64544 9.95155 2.8972 10.8104C3.11957 11.5706 3.47229 12.2863 3.93964 12.9257C4.36651 13.5053 4.91319 13.9861 5.54249 14.3355C6.17748 14.679 6.88985 14.854 7.6117 14.844C8.14908 14.8497 8.68309 14.7584 9.18809 14.5746C9.64172 14.4087 10.0638 14.1669 10.4363 13.8594C10.7895 13.5467 11.1016 13.1905 11.3651 12.7993C11.6365 12.3975 11.8567 11.9634 12.0205 11.507L12.8151 11.8891C12.2083 13.3796 11.4039 14.4443 10.402 15.0831C9.40004 15.7219 8.20836 16.0413 6.82693 16.0413Z" fill="#C4C4C4"/>
<path d="M47.9356 15.6807H41.294V14.9292C41.534 14.9224 41.8426 14.8969 42.2208 14.8548C42.599 14.8127 42.8576 14.7568 42.9997 14.6745C43.1955 14.5626 43.3609 14.4045 43.4817 14.214C43.5904 14.0146 43.6436 13.7895 43.6355 13.5625V2.62962H43.4758L38.3489 15.4377H37.8178L32.9358 2.36509H32.7977V11.3375C32.7977 12.2069 32.8525 12.8672 32.9623 13.3186C33.071 13.7712 33.2395 14.0955 33.4649 14.2934C33.621 14.4417 33.9423 14.5831 34.4289 14.7176C34.7402 14.8148 35.0591 14.8856 35.3822 14.9292V15.6807H29.3127V14.9292C29.6496 14.8978 29.984 14.8448 30.314 14.7705C30.6072 14.7171 30.8843 14.5974 31.1243 14.4208C31.3712 14.2248 31.5407 13.9211 31.6328 13.5096C31.7249 13.0981 31.7706 12.4123 31.7699 11.4522V3.76317C31.7814 3.39288 31.7276 3.02345 31.6112 2.67175C31.5178 2.40928 31.3614 2.17377 31.1556 1.98593C30.9218 1.78685 30.6467 1.64198 30.3503 1.5617C30.0435 1.4719 29.7271 1.41862 29.4078 1.40298V0.648586H34.5338L38.8397 11.9322L42.5206 2.49343C42.6565 2.13836 42.7714 1.77555 42.8645 1.4069C42.9324 1.15822 42.9812 0.904706 43.0105 0.648586H47.9091V1.40103C47.6547 1.41602 47.4017 1.44876 47.1518 1.499C46.9241 1.53647 46.6992 1.5895 46.4787 1.65772C46.3713 1.68894 46.2719 1.74302 46.1874 1.81624C46.1028 1.88947 46.0351 1.9801 45.9889 2.08194C45.9025 2.28645 45.8591 2.50657 45.8615 2.72857V13.5625C45.8546 13.778 45.8983 13.992 45.9889 14.1876C46.1015 14.3836 46.2728 14.5392 46.4787 14.6324C46.6942 14.7299 46.9225 14.7959 47.1567 14.8283C47.4118 14.8786 47.6701 14.9113 47.9297 14.9263L47.9356 15.6807Z" fill="#C4C4C4"/>
<path d="M62.5975 11.2533L62.3115 15.6807H49.8325V14.9292C50.0442 14.9146 50.3224 14.8852 50.68 14.8391C50.9135 14.8192 51.1438 14.7712 51.3658 14.6961C51.5644 14.6143 51.7302 14.4689 51.8371 14.2826C51.9321 14.0811 51.9775 13.8597 51.9693 13.637V2.83144C51.9731 2.61893 51.9335 2.40789 51.8528 2.21127C51.7754 2.031 51.6127 1.88502 51.3629 1.77137C51.1166 1.66219 50.859 1.5807 50.5948 1.52839C50.3419 1.46854 50.0853 1.42599 49.8267 1.40103V0.648586H61.464V4.27362H60.6694C60.5283 3.73672 60.223 3.16651 59.7534 2.56299C59.2837 1.95948 58.837 1.62767 58.4131 1.56758C58.1946 1.53917 57.933 1.51859 57.6293 1.5039C57.3256 1.4892 56.9797 1.48234 56.5908 1.48234H54.2286V7.45875H55.9236C56.4676 7.45875 56.8651 7.40747 57.1159 7.30493C57.3773 7.19436 57.6053 7.01739 57.7772 6.79154C57.9541 6.54378 58.0886 6.26831 58.175 5.9764C58.2782 5.66074 58.351 5.33596 58.3925 5.00646H59.1871V10.8966H58.3925C58.3585 10.5298 58.2819 10.1681 58.1642 9.81893C58.0818 9.52563 57.951 9.24814 57.7772 8.99791C57.5901 8.74501 57.3293 8.55612 57.0307 8.4571C56.6696 8.36171 56.2969 8.31817 55.9236 8.32777H54.2286V12.8346C54.2204 13.1931 54.2533 13.5514 54.3266 13.9025C54.3745 14.1369 54.5062 14.3459 54.6969 14.4903C54.9217 14.6393 55.1806 14.7286 55.4494 14.75C55.8999 14.7946 56.3526 14.8139 56.8053 14.8078H57.7263C58.0482 14.8102 58.3699 14.7962 58.6903 14.7656C58.971 14.7347 59.249 14.6832 59.5221 14.6118C59.8082 14.5374 60.0114 14.4368 60.1315 14.3101C60.4581 13.9711 60.7987 13.457 61.1534 12.7679C61.5081 12.0789 61.7367 11.5723 61.8392 11.2484L62.5975 11.2533Z" fill="#C4C4C4"/>
<path d="M78.7708 15.6807H74.7265C73.8303 14.2758 73.0208 13.0612 72.2977 12.0371C71.5747 11.0129 70.7909 9.95708 69.9463 8.86957H68.4032V13.637C68.3984 13.8597 68.4381 14.0812 68.5198 14.2885C68.5969 14.4753 68.7628 14.6183 69.0175 14.7176C69.2346 14.7862 69.4582 14.8322 69.6847 14.8548C70.0022 14.8969 70.2726 14.9224 70.4901 14.9292V15.6807H64.1335V14.9292C64.3034 14.9142 64.549 14.8894 64.8703 14.8548C65.0995 14.8395 65.3256 14.7934 65.5424 14.7176C65.7378 14.6402 65.9007 14.4981 66.0039 14.3149C66.1067 14.1042 66.1558 13.8713 66.1469 13.637V2.76776C66.1505 2.54403 66.1143 2.32145 66.0401 2.11036C65.9709 1.92029 65.8056 1.77561 65.5444 1.67633C65.3206 1.60046 65.0913 1.54216 64.8586 1.50194C64.6206 1.45577 64.3801 1.42306 64.1384 1.40396V0.648586H71.0779C71.6801 0.645128 72.2807 0.710875 72.8679 0.844534C73.4051 0.966889 73.9174 1.18029 74.3826 1.47549C74.8169 1.75399 75.1771 2.13394 75.4319 2.58259C75.6932 3.0398 75.8238 3.58878 75.8238 4.22953C75.8332 4.75378 75.7431 5.27507 75.5583 5.76576C75.3863 6.20406 75.1185 6.59838 74.7745 6.91989C74.4348 7.239 74.049 7.5052 73.6302 7.70956C73.1585 7.94267 72.6666 8.13222 72.1605 8.27585C72.9019 9.25558 73.5181 10.0822 74.0093 10.7556C74.5005 11.429 75.1027 12.2454 75.816 13.2049C76.0558 13.5517 76.3386 13.8667 76.6575 14.1425C76.8895 14.3307 77.14 14.4948 77.4051 14.6324C77.6224 14.7353 77.8534 14.8065 78.0909 14.844C78.3173 14.8881 78.5464 14.9166 78.7767 14.9292L78.7708 15.6807ZM73.202 4.47936C73.202 3.56951 72.9407 2.84842 72.4182 2.3161C71.8957 1.78378 71.1576 1.51761 70.204 1.51761H68.4032V7.95841H69.7906C70.7651 7.95841 71.5773 7.64653 72.2272 7.02276C72.8771 6.39899 73.202 5.55119 73.202 4.47936Z" fill="#C4C4C4"/>
<path d="M85.9719 16.0413C85.0854 16.0435 84.208 15.863 83.3943 15.5112C82.5697 15.1563 81.8263 14.6369 81.2094 13.9848C80.5551 13.2791 80.0443 12.4529 79.7055 11.5521C79.3326 10.5952 79.1458 9.51554 79.1451 8.31308C79.1301 7.19868 79.3166 6.09074 79.6957 5.04271C80.0349 4.10912 80.5527 3.25056 81.2202 2.51499C81.8556 1.81977 82.6309 1.26685 83.4952 0.892541C85.0204 0.250831 86.7186 0.147178 88.3106 0.59862C88.9123 0.783676 89.4883 1.04372 90.0251 1.37261L90.4591 0.651526H91.3115L91.4095 6.01167H90.5405C90.4086 5.4334 90.2364 4.86507 90.0251 4.31085C89.8302 3.76081 89.5633 3.23898 89.2315 2.75894C88.9156 2.30019 88.5041 1.91517 88.0255 1.63028C87.5391 1.35332 86.9871 1.21253 86.4275 1.22271C85.7635 1.21791 85.1083 1.37424 84.518 1.67829C83.9089 2.0002 83.3848 2.46186 82.9886 3.02543C82.5804 3.5976 82.2594 4.32554 82.0256 5.20927C81.7831 6.17621 81.6659 7.17029 81.6768 8.1671C81.6673 9.06207 81.7905 9.95351 82.0422 10.8124C82.2643 11.5715 82.616 12.2865 83.0817 12.9257C83.5092 13.5051 84.0561 13.9859 84.6855 14.3355C85.3202 14.6788 86.0323 14.8539 86.7538 14.844C87.2915 14.8498 87.8258 14.7585 88.3312 14.5746C88.7848 14.4087 89.2069 14.1669 89.5793 13.8594C89.9335 13.5471 90.2463 13.1909 90.5101 12.7993C90.7818 12.3975 91.0023 11.9634 91.1665 11.507L91.9611 11.8891C91.3563 13.3796 90.5519 14.4459 89.548 15.088C88.5441 15.73 87.3521 16.0478 85.9719 16.0413Z" fill="#C4C4C4"/>
<path d="M99.8559 15.6807H93.0859V14.9292L93.9128 14.8656C94.1713 14.8556 94.4274 14.8128 94.6751 14.7382C94.8794 14.6684 95.057 14.5369 95.1836 14.362C95.3001 14.1618 95.3553 13.9319 95.3423 13.7007V2.80989C95.3509 2.59779 95.3128 2.38639 95.2306 2.19069C95.1532 2.02414 94.97 1.88502 94.68 1.77137C94.4197 1.67244 94.1525 1.59287 93.8805 1.53329C93.6211 1.46894 93.3571 1.42472 93.0908 1.40103V0.648586H99.8608V1.40103C99.5983 1.41222 99.3366 1.43872 99.0771 1.48038C98.8085 1.51846 98.5432 1.57676 98.2835 1.65478C98.014 1.74001 97.8347 1.87816 97.7426 2.06823C97.6491 2.26698 97.6022 2.48445 97.6055 2.70408V13.5841C97.6014 13.8003 97.6541 14.0138 97.7583 14.2033C97.881 14.4005 98.0657 14.5514 98.2835 14.6324C98.5201 14.7125 98.7624 14.7744 99.0085 14.8176C99.2894 14.8782 99.5748 14.9156 99.8618 14.9292L99.8559 15.6807Z" fill="#C4C4C4"/>
<path d="M113.882 2.42877C114.564 3.15064 115.093 4.0027 115.439 4.93396C115.824 5.97249 116.015 7.07317 116.001 8.18081C116.016 9.29136 115.822 10.3948 115.429 11.4335C115.076 12.3636 114.535 13.211 113.84 13.9231C113.191 14.5952 112.413 15.1285 111.552 15.4906C110.651 15.8607 109.686 16.0479 108.712 16.0415C107.738 16.0351 106.775 15.8352 105.879 15.4534C105.011 15.0743 104.232 14.5157 103.595 13.8143C102.935 13.0897 102.426 12.242 102.096 11.3199C101.727 10.314 101.543 9.25004 101.551 8.17885C101.551 6.95745 101.742 5.86798 102.123 4.91045C102.482 3.98773 103.019 3.14408 103.701 2.42681C104.354 1.74205 105.142 1.20083 106.015 0.837676C106.9 0.472349 107.848 0.285247 108.805 0.287096C109.762 0.288946 110.71 0.479711 111.593 0.848453C112.458 1.21042 113.237 1.74865 113.882 2.42877ZM112.303 13.0854C112.711 12.4115 113.003 11.6739 113.167 10.9035C113.355 10.0084 113.445 9.09547 113.436 8.18081C113.445 7.2253 113.343 6.27195 113.134 5.33957C112.968 4.56035 112.669 3.81521 112.252 3.13614C111.886 2.55686 111.385 2.07535 110.791 1.73316C110.176 1.39004 109.482 1.21625 108.778 1.22957C107.929 1.22957 107.209 1.42389 106.617 1.81252C106.016 2.20876 105.519 2.74244 105.166 3.36932C104.791 4.05133 104.524 4.78784 104.376 5.55218C104.2 6.41659 104.113 7.29673 104.117 8.17885C104.107 9.10418 104.2 10.0277 104.392 10.9329C104.557 11.7043 104.85 12.4423 105.261 13.1158C105.616 13.7111 106.111 14.2111 106.702 14.5726C107.282 14.9214 107.974 15.0961 108.778 15.0968C109.495 15.1071 110.201 14.924 110.823 14.5667C111.435 14.2078 111.945 13.6977 112.303 13.0854Z" fill="#C4C4C4"/>
<path d="M11.7167 23.7557C11.731 24.4762 11.5728 25.1897 11.2553 25.8367C10.9573 26.4314 10.5204 26.9456 9.98162 27.3357C9.44898 27.7296 8.84954 28.024 8.21221 28.2047C7.54687 28.3916 6.85859 28.4843 6.1675 28.48H4.48137V33.0358C4.47728 33.2591 4.51931 33.4809 4.60482 33.6873C4.68646 33.8748 4.85432 34.0175 5.1084 34.1155C5.32686 34.1854 5.55218 34.2317 5.7805 34.2536C6.07294 34.2936 6.36726 34.3185 6.66227 34.3281V35.0795H0.211673V34.3281C0.381495 34.3137 0.627082 34.2889 0.948436 34.2536C1.17775 34.2386 1.4039 34.1921 1.62054 34.1155C1.81605 34.0387 1.97907 33.8968 2.08199 33.7138C2.18482 33.503 2.23396 33.2701 2.22503 33.0358V22.1872C2.22828 21.9603 2.19249 21.7346 2.11922 21.5199C2.0477 21.324 1.88213 21.1741 1.62054 21.0751C1.36062 20.9855 1.093 20.9199 0.82107 20.8792C0.556541 20.84 0.331201 20.8136 0.135254 20.7998V20.0474H7.00224C8.40065 20.0474 9.53584 20.3848 10.4078 21.0595C11.2798 21.7342 11.7161 22.6329 11.7167 23.7557ZM8.49634 26.3187C8.72554 26.004 8.88761 25.6455 8.97249 25.2655C9.0456 24.9439 9.08468 24.6155 9.08908 24.2857C9.08809 23.8721 9.0401 23.4599 8.94604 23.0572C8.86118 22.663 8.69427 22.2911 8.45617 21.9657C8.2008 21.6288 7.86355 21.3627 7.47643 21.1927C7.07604 21.0092 6.57605 20.9171 5.97645 20.9164H4.48137V27.5581H5.55908C6.32132 27.5581 6.94182 27.4399 7.42059 27.2034C7.85 27.0071 8.22079 26.7021 8.49634 26.3187Z" fill="#C4C4C4"/>
<path d="M27.8246 35.0795H21.5788V34.3281C22.0423 34.307 22.5022 34.2357 22.9504 34.1155C23.3149 34.0096 23.4961 33.8793 23.4961 33.7236C23.4949 33.6458 23.488 33.5682 23.4755 33.4914C23.4634 33.4079 23.4421 33.3261 23.4118 33.2474L22.1666 29.882H16.8897C16.6938 30.3764 16.5331 30.8075 16.4077 31.1753C16.2833 31.5417 16.1716 31.8816 16.0726 32.1922C15.9737 32.5028 15.9178 32.7428 15.8767 32.9329C15.8455 33.0865 15.8278 33.2426 15.8238 33.3993C15.8238 33.6821 16.0465 33.9012 16.492 34.0567C16.9777 34.2192 17.484 34.3119 17.9959 34.332V35.0834H12.3447V34.332C12.5762 34.309 12.8055 34.268 13.0305 34.2095C13.2697 34.1571 13.4987 34.0661 13.7085 33.9401C13.9588 33.7781 14.1806 33.5758 14.3649 33.3415C14.5522 33.0739 14.7052 32.7839 14.8205 32.4783C15.5756 30.5926 16.409 28.4738 17.3208 26.1218C18.2326 23.7697 19.0448 21.6757 19.7574 19.8397H20.6049L25.6153 32.8065C25.7015 33.0457 25.823 33.2706 25.9758 33.4737C26.1368 33.667 26.326 33.8348 26.5372 33.9714C26.7359 34.085 26.9501 34.1688 27.1731 34.2203C27.3874 34.2802 27.6074 34.3176 27.8295 34.332L27.8246 35.0795ZM21.7796 28.9356L19.5027 23.1022L17.2581 28.9356H21.7796Z" fill="#C4C4C4"/>
<path d="M43.3768 35.0795H39.3285C38.433 33.6746 37.6234 32.46 36.8997 31.4359C36.176 30.4117 35.3923 29.3559 34.5484 28.2684H33.0053V33.0358C33.001 33.2585 33.0406 33.4799 33.1219 33.6873C33.2003 33.8744 33.3658 34.0175 33.6206 34.1155C33.8374 34.1852 34.0611 34.2315 34.2878 34.2536C34.6052 34.2957 34.8756 34.3212 35.0931 34.3281V35.0795H28.7366V34.3281C28.9064 34.3137 29.1517 34.2889 29.4724 34.2536C29.702 34.2385 29.9284 34.192 30.1454 34.1155C30.3407 34.0388 30.5034 33.8968 30.6059 33.7138C30.7092 33.5032 30.7584 33.2702 30.749 33.0358V22.1666C30.7528 21.9429 30.717 21.7203 30.6431 21.5092C30.5726 21.3191 30.4067 21.1744 30.1454 21.0751C29.9217 20.9994 29.6924 20.9411 29.4596 20.9007C29.2216 20.8546 28.9812 20.8219 28.7395 20.8028V20.0503H35.678C36.2805 20.0468 36.8815 20.1126 37.469 20.2463C38.0061 20.3688 38.5184 20.5822 38.9836 20.8772C39.4177 21.1558 39.7775 21.5358 40.032 21.9843C40.2932 22.4415 40.4239 22.9905 40.4239 23.6313C40.4336 24.1555 40.3438 24.6768 40.1593 25.1675C39.9873 25.6058 39.7195 26.0001 39.3755 26.3216C39.0357 26.6405 38.6499 26.9067 38.2312 27.1113C37.7596 27.3444 37.2677 27.534 36.7616 27.6776C37.5029 28.6573 38.1192 29.4839 38.6104 30.1573C39.1015 30.8307 39.7034 31.6472 40.416 32.6067C40.6565 32.9533 40.9395 33.2683 41.2586 33.5443C41.4904 33.7322 41.7405 33.8963 42.0052 34.0341C42.2226 34.1367 42.4535 34.2079 42.691 34.2458C42.9174 34.2898 43.1465 34.3183 43.3768 34.331V35.0795ZM37.805 23.8782C37.805 22.9683 37.5438 22.2472 37.0212 21.7149C36.4987 21.1826 35.761 20.9164 34.808 20.9164H33.0053V27.3572H34.3936C35.3687 27.3572 36.1809 27.0453 36.8302 26.4216C37.4794 25.7978 37.8044 24.95 37.805 23.8782Z" fill="#C4C4C4"/>
<path d="M56.5535 24.1261H55.8226C55.7373 23.8138 55.6218 23.5106 55.4777 23.2208C55.315 22.8781 55.1287 22.5472 54.9202 22.2303C54.7205 21.9211 54.4872 21.6349 54.2246 21.3769C53.9738 21.1339 53.7347 20.9938 53.4977 20.9586C53.2606 20.9233 53.0019 20.9096 52.6688 20.8949C52.3357 20.8802 52.0281 20.8743 51.7449 20.8743H51.1296V32.8976C51.127 33.12 51.1777 33.3397 51.2776 33.5384C51.391 33.746 51.5753 33.906 51.7968 33.9891C52.059 34.0734 52.3264 34.1405 52.5973 34.1899C52.9087 34.262 53.2256 34.3082 53.5447 34.3281V35.0795H46.4475V34.3281C46.6434 34.3134 46.9471 34.2859 47.3527 34.2428C47.6391 34.2249 47.9221 34.1716 48.1953 34.0841C48.4048 34.0108 48.585 33.8716 48.7087 33.6873C48.828 33.476 48.8851 33.2351 48.8733 32.9927V20.8743H48.259C48.0395 20.8743 47.7691 20.8792 47.4429 20.89C47.1166 20.9008 46.807 20.9233 46.5111 20.9586C46.278 20.9873 46.036 21.1267 45.7852 21.3769C45.5262 21.6376 45.2938 21.9235 45.0915 22.2303C44.8769 22.5513 44.6891 22.8895 44.5301 23.2413C44.3942 23.5259 44.2808 23.8208 44.1911 24.1231H43.4495V20.0474H56.5535V24.1261Z" fill="#C4C4C4"/>
<path d="M73.544 20.7998C73.2355 20.8264 72.9303 20.8832 72.6328 20.9693C72.3246 21.0355 72.0276 21.1461 71.7511 21.2975C71.497 21.4739 71.3259 21.8129 71.2377 22.3145C71.14 22.9452 71.0958 23.583 71.1054 24.2211V35.2284H70.1835L61.0749 22.9259V30.6805C61.0749 31.5499 61.1297 32.2174 61.2395 32.6831C61.3482 33.1494 61.5167 33.4806 61.7421 33.6785C61.9047 33.8346 62.2401 33.9793 62.7483 34.1125C63.0774 34.2117 63.4143 34.2828 63.7554 34.3251V35.0766H57.5899V34.3251C57.9164 34.2826 58.2388 34.2134 58.554 34.1184C59.006 33.9949 59.2885 33.8836 59.4015 33.7843C59.6484 33.5884 59.8179 33.2846 59.9099 32.879C60.002 32.4734 60.0471 31.7788 60.0471 30.7971V23.3952C60.0456 23.063 59.9883 22.7335 59.8776 22.4203C59.7898 22.1362 59.6334 21.8781 59.422 21.6689C59.1193 21.4066 58.77 21.2036 58.3923 21.0702C58.0564 20.9279 57.7011 20.8367 57.3381 20.7998V20.0474H61.6333L70.0826 31.5103V24.3582C70.0826 23.483 70.0261 22.8106 69.9131 22.341C69.8001 21.8713 69.6368 21.5588 69.4232 21.4034C69.2273 21.2688 68.9039 21.1382 68.4533 21.0115C68.1205 20.9071 67.7782 20.8362 67.4314 20.7998V20.0474H73.544V20.7998Z" fill="#C4C4C4"/>
<path d="M87.7689 30.6521L87.4828 35.0795H75.0039V34.3281C75.2155 34.3134 75.4938 34.284 75.8514 34.2379C76.0849 34.218 76.3152 34.17 76.5372 34.0949C76.7358 34.0132 76.9016 33.8677 77.0085 33.6814C77.1035 33.4799 77.1489 33.2585 77.1407 33.0358V22.2303C77.1445 22.0177 77.1049 21.8067 77.0241 21.6101C76.9467 21.4298 76.7841 21.2838 76.5343 21.1702C76.288 21.061 76.0304 20.9795 75.7662 20.9272C75.5133 20.8674 75.2567 20.8249 74.998 20.7998V20.0474H86.6354V23.6724H85.8408C85.6997 23.1355 85.3944 22.5653 84.9247 21.9618C84.4551 21.3583 84.0084 21.0265 83.5845 20.9664C83.366 20.938 83.1044 20.9174 82.8007 20.9027C82.497 20.888 82.1511 20.8812 81.7622 20.8812H79.4V26.8576H81.095C81.6384 26.8576 82.0358 26.8063 82.2873 26.7037C82.5487 26.5932 82.7767 26.4162 82.9486 26.1904C83.1255 25.9426 83.2599 25.6671 83.3464 25.3752C83.4491 25.0594 83.5219 24.7347 83.5639 24.4053H84.3555V30.2955H83.5619C83.528 29.9286 83.4514 29.5669 83.3337 29.2177C83.2498 28.9241 83.1173 28.6466 82.9418 28.3967C82.7546 28.1438 82.4938 27.9549 82.1952 27.8559C81.8341 27.7612 81.4613 27.7183 81.0881 27.7285H79.3931V32.2353C79.3855 32.5939 79.4183 32.9521 79.4911 33.3033C79.5387 33.5394 79.6707 33.7501 79.8624 33.896C80.0872 34.045 80.3461 34.1343 80.6149 34.1556C81.0654 34.2002 81.5181 34.2195 81.9708 34.2134H82.8918C83.2137 34.2163 83.5355 34.2023 83.8559 34.1713C84.1365 34.1403 84.4145 34.0889 84.6877 34.0175C84.9737 33.943 85.1769 33.8424 85.297 33.7157C85.6236 33.3767 85.9642 32.8627 86.3189 32.1736C86.6736 31.4845 86.9022 30.978 87.0047 30.654L87.7689 30.6521Z" fill="#C4C4C4"/>
<path d="M104.315 35.0795H100.266C99.3695 33.6746 98.5599 32.46 97.8375 31.4359C97.1151 30.4117 96.3313 29.3559 95.4861 28.2684H93.943V33.0358C93.9387 33.2585 93.9783 33.4799 94.0596 33.6873C94.137 33.8744 94.3036 34.0175 94.5573 34.1155C94.7742 34.185 94.9979 34.2313 95.2245 34.2536C95.5429 34.2957 95.8124 34.3212 96.0299 34.3281V35.0795H89.6733V34.3281C89.8432 34.3137 90.0887 34.2889 90.4101 34.2536C90.6397 34.2385 90.8662 34.192 91.0832 34.1155C91.2785 34.0388 91.4412 33.8968 91.5437 33.7138C91.6465 33.503 91.6956 33.2701 91.6867 33.0358V22.1666C91.6906 21.9429 91.6547 21.7203 91.5809 21.5092C91.5103 21.3191 91.3438 21.1741 91.0832 21.0751C90.8594 20.9995 90.6301 20.9412 90.3974 20.9008C90.159 20.8546 89.9183 20.8219 89.6763 20.8028V20.0503H96.6158C97.218 20.0468 97.8186 20.1125 98.4057 20.2463C98.9429 20.3686 99.4552 20.582 99.9204 20.8772C100.355 21.1557 100.715 21.5357 100.97 21.9843C101.231 22.4416 101.362 22.9905 101.362 23.6313C101.371 24.1555 101.282 24.6768 101.097 25.1675C100.925 25.6058 100.657 26.0001 100.313 26.3216C99.974 26.6407 99.5885 26.9069 99.1699 27.1113C98.6983 27.3443 98.2064 27.5338 97.7003 27.6776C98.4423 28.6573 99.0582 29.4839 99.5481 30.1573C100.038 30.8307 100.64 31.6472 101.355 32.6067C101.595 32.9535 101.878 33.2686 102.197 33.5443C102.429 33.7324 102.679 33.8965 102.944 34.0341C103.161 34.1369 103.392 34.2081 103.63 34.2458C103.856 34.2899 104.085 34.3183 104.316 34.331L104.315 35.0795ZM98.7418 23.8782C98.7418 22.9683 98.4805 22.2472 97.958 21.7149C97.4355 21.1826 96.6974 20.9164 95.7438 20.9164H93.943V27.3572H95.3284C96.3036 27.3572 97.1158 27.0453 97.765 26.4216C98.4142 25.7978 98.7398 24.95 98.7418 23.8782Z" fill="#C4C4C4"/>
<path d="M114.62 28.1831C114.928 28.5203 115.167 28.9144 115.324 29.3431C115.485 29.8161 115.562 30.3134 115.552 30.8128C115.552 32.14 115.062 33.2347 114.083 34.0968C113.103 34.959 111.885 35.3898 110.428 35.3891C109.745 35.3874 109.066 35.282 108.415 35.0766C107.807 34.8965 107.223 34.6421 106.678 34.3192L106.222 35.0922H105.375L105.224 29.9418H106.081C106.241 30.5313 106.449 31.107 106.701 31.6632C106.943 32.1844 107.259 32.6681 107.639 33.0995C108 33.5113 108.437 33.8493 108.926 34.0949C109.459 34.3512 110.046 34.4781 110.637 34.4652C111.069 34.473 111.5 34.4087 111.911 34.2751C112.233 34.1738 112.527 33.9974 112.768 33.7603C113.01 33.5232 113.191 33.2322 113.298 32.9114C113.413 32.5606 113.469 32.193 113.462 31.8238C113.463 31.2255 113.286 30.6403 112.954 30.1426C112.615 29.6234 112.11 29.2292 111.439 28.9601C110.982 28.7772 110.456 28.575 109.86 28.3536C109.264 28.1322 108.754 27.9232 108.328 27.7266C107.479 27.3458 106.82 26.8464 106.352 26.2286C105.883 25.6107 105.648 24.804 105.647 23.8086C105.643 23.2559 105.762 22.7092 105.997 22.2087C106.237 21.7054 106.575 21.2554 106.992 20.8851C107.418 20.5085 107.91 20.2157 108.444 20.0219C109.003 19.8136 109.595 19.7077 110.192 19.7094C110.827 19.6986 111.458 19.8066 112.054 20.0278C112.575 20.2274 113.077 20.476 113.552 20.7704L113.987 20.0503H114.834L114.918 25.0401H114.06C113.905 24.468 113.731 23.9206 113.536 23.3981C113.35 22.8921 113.096 22.4143 112.779 21.9785C112.483 21.5758 112.103 21.2416 111.667 20.9987C111.228 20.7544 110.691 20.6326 110.056 20.6333C109.422 20.6193 108.807 20.851 108.339 21.2799C108.113 21.4754 107.933 21.718 107.81 21.9906C107.688 22.2633 107.626 22.5594 107.63 22.8583C107.63 23.5075 107.782 24.046 108.086 24.4739C108.389 24.9017 108.831 25.2527 109.41 25.5271C109.906 25.7664 110.413 25.9806 110.93 26.1688C111.428 26.3478 111.91 26.5401 112.376 26.7459C112.797 26.9276 113.206 27.1364 113.6 27.3709C113.977 27.5918 114.32 27.8653 114.62 28.1831Z" fill="#C4C4C4"/>
<path d="M21.8609 10.3402L26.4128 14.892C26.6708 14.7165 26.9185 14.5261 27.1544 14.3218C27.0857 14.2157 27.0059 14.1172 26.9164 14.0279L23.1081 10.2196C22.9444 10.0558 22.7499 9.92588 22.5359 9.83722C22.3219 9.74855 22.0926 9.70292 21.8609 9.70292C21.6293 9.70292 21.3999 9.74855 21.1859 9.83722C20.9719 9.92588 20.7775 10.0558 20.6137 10.2196L16.8055 14.0279C16.7159 14.1174 16.6358 14.2159 16.5664 14.3218C16.8029 14.5259 17.0508 14.7162 17.309 14.892L21.8609 10.3402Z" fill="#C4C4C4"/>
<path d="M21.8609 13.3773L24.371 15.8874C24.7059 15.7786 25.0332 15.6477 25.3508 15.4955L23.1062 13.251C22.9424 13.0871 22.748 12.9572 22.534 12.8685C22.32 12.7799 22.0906 12.7342 21.859 12.7342C21.6273 12.7342 21.398 12.7799 21.184 12.8685C20.97 12.9572 20.7755 13.0871 20.6118 13.251L18.3672 15.4955C18.6847 15.6477 19.012 15.7786 19.3469 15.8874L21.8609 13.3773Z" fill="#C4C4C4"/>
<path d="M21.4456 15.2624L20.5334 16.1745C21.4124 16.3208 22.3096 16.3208 23.1885 16.1745L22.2764 15.2624C22.1662 15.1523 22.0168 15.0904 21.861 15.0904C21.7052 15.0904 21.5558 15.1523 21.4456 15.2624Z" fill="#C4C4C4"/>
<path d="M24.0093 8.19159L28.5612 3.63973C28.3859 3.38142 28.1959 3.13345 27.992 2.89709C27.8857 2.96562 27.7871 3.04545 27.698 3.13516L23.8859 6.94341C23.7219 7.10719 23.5918 7.30169 23.5031 7.51578C23.4143 7.72987 23.3687 7.95935 23.3687 8.1911C23.3687 8.42286 23.4143 8.65234 23.5031 8.86643C23.5918 9.08052 23.7219 9.27501 23.8859 9.4388L27.6941 13.247C27.7832 13.3368 27.8818 13.4166 27.988 13.4851C28.1919 13.2488 28.382 13.0008 28.5573 12.7425L24.0093 8.19159Z" fill="#C4C4C4"/>
<path d="M27.0467 8.19159L29.5568 5.68248C29.4483 5.34748 29.3174 5.02016 29.1649 4.70274L26.9213 6.94634C26.7573 7.11013 26.6272 7.30462 26.5385 7.51871C26.4497 7.7328 26.4041 7.96228 26.4041 8.19404C26.4041 8.42579 26.4497 8.65528 26.5385 8.86937C26.6272 9.08345 26.7573 9.27795 26.9213 9.44174L29.1649 11.6863C29.317 11.3688 29.4479 11.0415 29.5568 10.7066L27.0467 8.19159Z" fill="#C4C4C4"/>
<path d="M28.9327 8.607L29.8448 9.51913C29.9898 8.64004 29.9898 7.74313 29.8448 6.86404L28.9327 7.7752C28.878 7.8298 28.8346 7.89463 28.8051 7.96599C28.7755 8.03735 28.7603 8.11385 28.7603 8.1911C28.7603 8.26835 28.7755 8.34484 28.8051 8.41621C28.8346 8.48757 28.878 8.5524 28.9327 8.607Z" fill="#C4C4C4"/>
<path d="M21.8609 5.94407L17.309 1.39221C17.0509 1.56703 16.803 1.75642 16.5664 1.95948C16.6355 2.06558 16.7157 2.1641 16.8055 2.2534L20.6137 6.0685C20.7775 6.23232 20.9719 6.36227 21.1859 6.45093C21.3999 6.53959 21.6293 6.58523 21.8609 6.58523C22.0926 6.58523 22.3219 6.53959 22.5359 6.45093C22.7499 6.36227 22.9444 6.23232 23.1081 6.0685L26.9164 2.26026C27.0061 2.1712 27.086 2.07265 27.1544 1.96633C26.9185 1.76205 26.6708 1.57166 26.4128 1.39613L21.8609 5.94407Z" fill="#C4C4C4"/>
<path d="M21.8609 2.90688L19.3508 0.396794C19.0161 0.506053 18.6888 0.636961 18.3711 0.788689L20.6137 3.03131C20.7775 3.19513 20.9719 3.32508 21.1859 3.41374C21.3999 3.5024 21.6293 3.54804 21.8609 3.54804C22.0926 3.54804 22.3219 3.5024 22.5359 3.41374C22.7499 3.32508 22.9444 3.19513 23.1081 3.03131L25.3527 0.78379C25.035 0.632062 24.7077 0.501155 24.373 0.391895L21.8609 2.90688Z" fill="#C4C4C4"/>
<path d="M22.2764 1.02187L23.1885 0.109732C22.3096 -0.0365672 21.4124 -0.0365672 20.5334 0.109732L21.4456 1.02187C21.5558 1.13195 21.7052 1.19378 21.861 1.19378C22.0168 1.19378 22.1662 1.13195 22.2764 1.02187Z" fill="#C4C4C4"/>
<path d="M19.7113 8.09361L15.1594 12.6445C15.335 12.9028 15.5254 13.1508 15.7296 13.3871C15.8359 13.3186 15.9344 13.2388 16.0236 13.1491L19.8318 9.34082C19.9958 9.17704 20.1258 8.98254 20.2146 8.76845C20.3033 8.55436 20.349 8.32488 20.349 8.09312C20.349 7.86137 20.3033 7.63189 20.2146 7.4178C20.1258 7.20371 19.9958 7.00921 19.8318 6.84543L16.0275 3.03719C15.9384 2.94747 15.8398 2.86765 15.7336 2.79911C15.5293 3.03546 15.3389 3.28343 15.1633 3.54175L19.7113 8.09361Z" fill="#C4C4C4"/>
<path d="M16.6742 8.09362L14.1641 10.6037C14.2733 10.9384 14.4042 11.2657 14.556 11.5834L16.8005 9.33886C16.9645 9.17508 17.0946 8.98058 17.1833 8.76649C17.2721 8.55241 17.3178 8.32292 17.3178 8.09117C17.3178 7.85941 17.2721 7.62993 17.1833 7.41584C17.0946 7.20175 16.9645 7.00726 16.8005 6.84347L14.554 4.60477C14.4019 4.92237 14.271 5.24966 14.1621 5.58451L16.6742 8.09362Z" fill="#C4C4C4"/>
<path d="M14.7941 7.67723L13.8819 6.76607C13.7356 7.64505 13.7356 8.54218 13.8819 9.42116L14.7941 8.50902C14.8487 8.45443 14.8921 8.3896 14.9217 8.31823C14.9513 8.24687 14.9665 8.17038 14.9665 8.09313C14.9665 8.01587 14.9513 7.93938 14.9217 7.86802C14.8921 7.79665 14.8487 7.73182 14.7941 7.67723Z" fill="#C4C4C4"/>
</g>
<defs>
<clipPath id="clip0">
<rect width="116" height="35.3872" fill="white"/>
</clipPath>
</defs>
</svg>

