<?xml version="1.0" encoding="utf-8"?>
<!-- Generator: Adobe Illustrator 24.0.3, SVG Export Plug-In . SVG Version: 6.00 Build 0)  -->
<svg width="123" height="174" viewBox="0 0 123 51" fill="none" xmlns="http://www.w3.org/2000/svg">
<g clip-path="url(#clip0)">
<path d="M84.3597 22.1931C79.6108 22.1931 75.7851 26.1545 75.6671 30.9535C75.5462 35.847 79.7258 40.121 84.3892 39.9145C89.3122 40.0207 93.2381 36.0122 93.2381 31.0656C93.2412 29.8991 93.0137 28.7434 92.5685 27.6652C92.1234 26.5869 91.4694 25.6073 90.6443 24.7827C89.8191 23.9582 88.8391 23.3049 87.7606 22.8604C86.682 22.416 85.5262 22.1892 84.3597 22.1931ZM88.9906 31.042C88.9906 33.4017 87.737 35.2423 85.746 35.847C85.1169 36.0441 84.4518 36.099 83.7989 36.0077C83.1459 35.9164 82.5214 35.6812 81.9705 35.3191C81.4195 34.957 80.9559 34.477 80.6131 33.9138C80.2703 33.3506 80.0569 32.7183 79.9883 32.0626C79.8084 30.5878 79.9736 29.2486 80.8024 28.0098C81.3117 27.2774 82.0289 26.7147 82.8614 26.3941C83.6938 26.0736 84.6033 26.0101 85.4722 26.2117C86.3411 26.4134 87.1296 26.871 87.7358 27.5254C88.342 28.1798 88.738 29.001 88.8726 29.8828C88.9514 30.26 88.9861 30.645 88.9759 31.0302L88.9906 31.042Z" fill="#C4C4C4"/>
<path d="M72.6614 39.065C72.6467 35.319 72.6614 31.5729 72.6467 27.8269C72.626 23.4319 68.7178 21.615 65.5676 22.3553C64.2461 22.6503 63.1548 23.3818 62.0457 24.2696C62.0457 23.7977 62.025 23.4201 62.0457 23.0426C62.0663 22.665 61.9602 22.5677 61.5944 22.5736C60.4617 22.5942 59.3261 22.5736 58.1905 22.5736C57.8955 22.5736 57.7451 22.6385 57.7451 22.9895C57.7451 28.3755 57.7451 33.7606 57.7451 39.1447C57.7451 39.4721 57.8395 39.5842 58.1728 39.5783C59.2347 39.5576 60.2995 39.5429 61.3614 39.5783C61.8864 39.5989 62.0604 39.4868 62.0545 38.9117C62.025 36.1744 62.025 33.4371 62.0545 30.6999C62.0752 29.2486 62.4114 27.8771 63.5677 26.8653C63.9553 26.5015 64.4357 26.2517 64.9562 26.1434C65.4766 26.0352 66.0168 26.0727 66.5173 26.2518C67.5704 26.6028 68.0423 27.4317 68.2104 28.4788C68.345 29.3305 68.412 30.1915 68.411 31.0538C68.4267 33.7203 68.4267 36.3858 68.411 39.0503C68.411 39.4367 68.4789 39.5871 68.9066 39.5753C69.9861 39.5429 71.0686 39.5429 72.1512 39.5753C72.5966 39.5989 72.6614 39.4485 72.6614 39.065Z" fill="#C4C4C4"/>
<path d="M122.643 32.8C122.239 31.7759 121.536 30.8971 120.626 30.2781C120.841 30.0391 121.033 29.8268 121.216 29.6114C123.089 27.4729 122.145 24.4997 120.275 23.2756C118.505 22.1223 116.629 22.0604 114.729 22.786C112.83 23.5116 111.812 25.1457 111.886 27.1514C111.946 28.219 112.403 29.2256 113.166 29.9742C113.405 30.2279 113.408 30.337 113.119 30.5642C112.416 31.1143 111.865 31.8343 111.518 32.6565C111.17 33.4786 111.038 34.3756 111.134 35.2629C111.195 36.3181 111.594 37.3254 112.274 38.1353C112.953 38.9451 113.875 39.5143 114.903 39.7582C115.994 39.9846 117.114 40.0404 118.222 39.9234C122.115 39.6078 123.794 35.7349 122.643 32.8ZM117.024 25.5852C118.154 25.5852 118.912 26.2311 118.918 27.1898C118.924 28.1484 118.169 28.8858 117.101 28.9065C116.033 28.9271 115.207 28.1986 115.207 27.2252C115.207 26.2518 115.965 25.5822 117.024 25.5852ZM114.446 34.4488C114.446 33.1481 115.605 32.1304 117.101 32.1334C118.596 32.1363 119.694 33.1481 119.688 34.4931C119.682 35.8381 118.649 36.7378 117.086 36.7289C115.523 36.7201 114.446 35.8027 114.446 34.4488Z" fill="#C4C4C4"/>
<path d="M109.526 22.5736C108.97 22.5711 108.414 22.6055 107.863 22.6768C105.886 23.0337 104.674 24.2047 103.993 26.0955C103.229 28.2163 102.311 30.281 101.406 32.5021C100.854 31.0833 100.365 29.8032 99.8602 28.5289C99.5829 27.8269 99.5652 27.8033 100.258 27.4936C101.3 27.0305 101.701 26.1987 101.71 25.1339C101.71 23.836 101.71 22.5382 101.71 21.2433C101.71 20.5059 101.73 19.7685 101.71 19.0281C101.689 18.2878 101.12 17.9073 100.503 18.2199C98.934 18.9927 97.5536 19.9897 96.5595 21.4852C96.2641 21.9198 96.1086 22.4345 96.1142 22.96C96.1142 25.2823 96.1142 27.6047 96.1142 29.927C96.1114 30.2136 96.1708 30.4974 96.2882 30.7588C97.5585 33.5885 98.8209 36.4212 100.076 39.2568C100.108 39.366 100.18 39.4596 100.276 39.5203C100.373 39.581 100.488 39.6048 100.601 39.5871C101.123 39.5694 101.648 39.5576 102.167 39.5871C102.527 39.6137 102.662 39.4455 102.792 39.1506C104.607 34.968 106.429 30.7874 108.258 26.6087C108.78 25.4288 109.299 24.2224 109.836 23.0367C109.986 22.6768 109.933 22.5559 109.526 22.5736ZM97.7483 28.9979C97.6365 29.1558 97.4977 29.2926 97.3383 29.402C97.2615 29.4765 97.1635 29.5253 97.0578 29.5417C96.9522 29.558 96.844 29.5412 96.7483 29.4935C96.5419 29.3843 96.6008 29.1985 96.6008 29.0097C96.6008 26.9951 96.6244 24.9805 96.6008 22.9659C96.5861 21.9188 97.3235 21.3288 97.8928 20.6475C98.642 19.7626 99.6773 19.2228 100.68 18.6653C101.052 18.4588 101.226 18.5916 101.229 19.0576C101.229 20.1372 101.229 21.2168 101.229 22.3022C101.229 23.3258 101.229 24.367 101.229 25.3787C101.246 25.7204 101.157 26.0589 100.976 26.349C100.794 26.639 100.529 26.8665 100.214 27.001C99.2083 27.4582 98.2821 27.9862 97.7483 28.9979Z" fill="#C4C4C4"/>
<path d="M27.46 38.4397C26.4571 37.3188 25.6489 36.1006 25.3952 34.5668C25.1003 32.8619 25.348 31.2101 25.7964 29.5701C26.4542 27.1779 27.5898 25.0011 28.8434 22.8744C30.5394 20.0015 32.4183 17.2701 35.0701 15.1847C37.5654 13.2085 40.3794 12.2793 43.568 12.6982C43.9898 12.7542 44.0694 12.6982 44.0016 12.3059C43.6594 10.3886 42.9485 8.63356 41.6212 7.17938C39.819 5.20313 37.4917 4.79607 35.0937 5.96118C34.0021 6.51124 33.0062 7.23329 32.144 8.09967C30.9759 9.27136 29.9266 10.5558 29.0115 11.9342C28.959 11.8712 28.9117 11.8042 28.8699 11.7336C27.4798 8.83424 25.5497 6.22642 23.183 4.04982C21.7554 2.70478 20.2688 1.43643 18.4636 0.631182C16.7233 -0.141624 14.9801 -0.348099 13.3165 0.834707C12.3695 1.55839 11.6299 2.51877 11.1721 3.61917C10.2164 5.68392 9.76804 7.8755 9.52912 10.129C9.16743 13.1823 9.23594 16.2712 9.73264 19.3054C9.78573 19.6003 9.73264 19.7242 9.38753 19.7124C8.5263 19.6806 7.66426 19.7479 6.8184 19.913C2.79804 20.6622 0.397028 23.4467 0.0548697 27.349C-0.12655 29.0772 0.0624151 30.8242 0.609174 32.4737C1.15593 34.1231 2.04793 35.6371 3.22573 36.9147C4.7507 38.6167 6.60897 39.6962 8.99523 39.6903C11.4936 39.6903 14.0096 39.7641 16.4932 39.829C20.6227 39.9351 24.7699 39.8821 28.9319 39.8703C28.4106 39.426 27.9189 38.9481 27.46 38.4397Z" fill="#C4C4C4"/>
<path d="M37.9206 35.7437C39.8575 35.2533 41.7283 34.5314 43.4925 33.5934C47.032 31.6408 50.4477 29.464 53.8162 27.1986C53.9222 27.1519 54.0059 27.0657 54.0494 26.9583C54.0929 26.8509 54.0928 26.7308 54.0492 26.6234C53.0316 23.4998 51.2913 20.9395 48.3564 19.3083C47.3477 18.7479 47.3477 18.7509 47.0438 19.8275C47.0291 19.8776 46.9937 19.9248 46.9789 19.975C46.2415 22.2285 44.7638 23.9599 43.0559 25.5262C40.4219 27.9449 37.3484 29.7206 34.2542 31.4579C33.3693 31.9564 33.095 32.5758 33.4666 33.4961C34.1303 35.1332 35.1774 35.8057 37.1448 35.8086C37.4047 35.807 37.6641 35.7853 37.9206 35.7437Z" fill="#C4C4C4"/>
<path d="M54.468 28.4404C52.7688 30.5771 50.9519 32.6174 49.0259 34.5521C47.1558 36.4428 45.3093 38.366 43.0706 39.7965C44.3802 39.7965 45.6721 39.8231 46.9611 39.7965C47.846 39.773 48.7516 39.6904 49.6394 39.5812C50.2186 39.5454 50.7696 39.3181 51.2057 38.9353C54.2055 36.0918 54.9547 32.5434 54.468 28.4404Z" fill="#C4C4C4"/>
<path d="M42.3657 17.6978C41.9357 17.8102 41.5155 17.9572 41.1092 18.1373C38.4043 19.2877 36.552 21.3554 35.0565 23.7977C34.4105 24.8507 33.8766 25.9509 33.8147 27.0099C33.7941 27.8948 33.8943 27.9626 34.499 27.6293C34.6111 27.5703 34.7143 27.4995 34.8176 27.4317C35.9086 26.676 36.9401 25.8378 37.9029 24.9245C39.8706 23.1883 41.4799 21.084 42.64 18.7302C42.7528 18.5263 42.8174 18.2993 42.8288 18.0665C42.8317 17.7391 42.6931 17.6212 42.3657 17.6978Z" fill="#C4C4C4"/>
<path d="M101.919 46.7253C101.859 46.3964 101.698 46.0945 101.459 45.8613C101.219 45.6282 100.913 45.4755 100.583 45.4245C99.6093 45.2298 98.9663 45.7371 98.4118 46.4391C97.5269 45.1118 96.642 45.0233 95.1672 46.094C95.1524 46.0645 95.1229 46.035 95.1259 46.0085C95.1554 45.6811 95.1111 45.4658 94.6805 45.4835C94.2498 45.5012 94.3855 45.8168 94.3855 46.0203C94.3708 47.4214 94.3855 48.8254 94.3855 50.2294C94.3855 50.4684 94.3029 50.725 94.7306 50.722C95.1583 50.7191 95.1259 50.4802 95.1259 50.1999C95.1259 49.4094 95.1259 48.616 95.1259 47.8255C95.125 47.3923 95.2659 46.9706 95.527 46.625C95.6953 46.415 95.9179 46.2551 96.1706 46.1625C96.4232 46.07 96.6964 46.0483 96.9606 46.0999C97.4797 46.2563 97.7009 46.6279 97.757 47.1736C97.8661 48.2001 97.81 49.2384 97.8277 50.2471C97.8277 50.5008 97.7835 50.7338 98.1935 50.722C98.6035 50.7102 98.574 50.5126 98.574 50.2383C98.574 49.3917 98.5563 48.5452 98.5947 47.7016C98.636 46.7518 99.2908 46.0793 100.111 46.0763C100.872 46.0763 101.179 46.4244 101.252 47.5512C101.314 48.4832 101.288 49.4212 101.285 50.3563C101.285 50.5952 101.332 50.7368 101.609 50.7014C101.795 50.6778 102.034 50.7545 102.028 50.4359C102.007 49.203 102.119 47.9582 101.919 46.7253Z" fill="#C4C4C4"/>
<path d="M122.41 43.4865C121.985 43.4718 122.056 43.7255 122.056 43.9703C122.056 44.7283 122.056 45.4864 122.056 46.33C121.828 46.0547 121.546 45.829 121.227 45.667C120.909 45.5049 120.56 45.4099 120.203 45.3878C119.846 45.3657 119.489 45.417 119.153 45.5384C118.816 45.6599 118.509 45.849 118.248 46.094C117.744 46.5875 117.444 47.2529 117.409 47.9576C117.373 48.6622 117.604 49.3544 118.056 49.8961C119.048 51.076 120.44 51.1261 122.056 49.9876C122.056 50.1173 122.056 50.1911 122.056 50.2619C122.035 50.5362 122.041 50.7338 122.434 50.722C122.826 50.7102 122.799 50.486 122.799 50.2265C122.799 48.1401 122.799 46.0537 122.799 43.9673C122.785 43.6842 122.773 43.4983 122.41 43.4865ZM120.08 50.0908C119.547 50.0814 119.04 49.8608 118.67 49.4774C118.3 49.0941 118.097 48.5794 118.107 48.0467C118.116 47.5139 118.337 47.0068 118.72 46.6367C119.103 46.2666 119.618 46.064 120.151 46.0734C121.254 46.0734 122.068 46.9583 122.059 48.1529C122.063 48.4131 122.014 48.6714 121.915 48.9119C121.816 49.1525 121.669 49.3702 121.482 49.5517C121.296 49.7332 121.074 49.8747 120.831 49.9674C120.588 50.0601 120.328 50.1021 120.068 50.0908H120.08Z" fill="#C4C4C4"/>
<path d="M113.836 45.4599C113.309 45.2995 112.745 45.308 112.224 45.4842C111.702 45.6603 111.249 45.9953 110.927 46.4421C110.013 47.7104 110.311 49.5687 111.559 50.4035C112.169 50.7916 112.908 50.925 113.616 50.775C114.324 50.6251 114.945 50.2036 115.346 49.6012C115.555 49.2796 115.511 49.1499 115.178 48.9788C114.844 48.8077 114.818 49.0702 114.709 49.2236C114.484 49.5757 114.152 49.8464 113.762 49.9961C113.371 50.1458 112.944 50.1666 112.541 50.0554C111.783 49.8873 111.361 49.3091 111.181 48.5452C111.09 48.1765 111.24 48.1617 111.52 48.1676C112.148 48.1676 112.78 48.1676 113.411 48.1676C114.042 48.1676 114.67 48.1676 115.299 48.1676C115.573 48.1676 115.709 48.147 115.682 47.7901C115.642 47.2617 115.445 46.7575 115.116 46.3422C114.787 45.927 114.341 45.6196 113.836 45.4599ZM114.526 47.4892C113.449 47.4745 112.373 47.4892 111.261 47.4892C111.526 46.6043 112.101 46.1206 112.865 46.0793C113.249 46.0361 113.636 46.1131 113.973 46.2997C114.311 46.4862 114.583 46.773 114.75 47.1205C114.865 47.3712 114.871 47.4892 114.526 47.4892Z" fill="#C4C4C4"/>
<path d="M67.5467 45.3507C67.1931 45.3506 66.843 45.4212 66.517 45.5583C66.191 45.6954 65.8957 45.8962 65.6484 46.149C65.4011 46.4018 65.2068 46.7014 65.0769 47.0304C64.947 47.3593 64.8842 47.7108 64.892 48.0644C64.892 49.669 66.0099 50.8341 67.5467 50.8282C67.8967 50.8294 68.2435 50.7608 68.5666 50.6263C68.8898 50.4919 69.1829 50.2943 69.4287 50.0452C69.6746 49.796 69.8682 49.5003 69.9984 49.1754C70.1285 48.8505 70.1925 48.5029 70.1866 48.1529C70.1689 46.5571 69.0658 45.3861 67.5467 45.3507ZM67.4877 50.0908C66.3786 50.0908 65.6176 49.2767 65.6235 48.1086C65.6124 47.5943 65.8054 47.0965 66.1602 46.7239C66.515 46.3514 67.0029 46.1345 67.5172 46.1206C68.6056 46.1206 69.4315 47.0379 69.4433 48.1853C69.4374 49.1617 68.5614 50.2176 67.473 50.0908H67.4877Z" fill="#C4C4C4"/>
<path d="M44.6487 45.3507C43.9363 45.3713 43.2596 45.6675 42.7612 46.177C42.2628 46.6864 41.9814 47.3694 41.9764 48.0821C41.9746 48.4346 42.0423 48.784 42.1756 49.1103C42.3089 49.4366 42.5051 49.7335 42.7531 49.984C43.0012 50.2345 43.2961 50.4336 43.6211 50.5701C43.9461 50.7066 44.2948 50.7778 44.6473 50.7795C44.9997 50.7813 45.3491 50.7136 45.6755 50.5803C46.0018 50.447 46.2987 50.2508 46.5491 50.0027C46.7996 49.7547 46.9988 49.4598 47.1353 49.1348C47.2718 48.8098 47.343 48.4611 47.3447 48.1086C47.351 47.386 47.071 46.6902 46.5658 46.1734C46.0606 45.6566 45.3714 45.3608 44.6487 45.3507ZM44.6487 50.0908C43.6458 50.1793 42.7374 49.3003 42.7256 48.1027C42.7276 47.5878 42.929 47.0936 43.2876 46.724C43.6462 46.3544 44.1341 46.1381 44.6487 46.1206C45.1715 46.1373 45.6675 46.3559 46.0326 46.7304C46.3978 47.1049 46.6037 47.6062 46.6073 48.1293C46.6133 48.3885 46.5667 48.6463 46.4703 48.887C46.3739 49.1277 46.2296 49.3464 46.0463 49.5298C45.8629 49.7131 45.6442 49.8574 45.4035 49.9538C45.1628 50.0502 44.905 50.0968 44.6458 50.0908H44.6487Z" fill="#C4C4C4"/>
<path d="M38.2216 46.3536C37.9042 46.1461 37.6501 45.8553 37.4871 45.513C37.4175 45.3767 37.391 45.2225 37.411 45.0708C37.431 44.9191 37.4966 44.777 37.5992 44.6635C37.7095 44.5324 37.8554 44.4362 38.0193 44.3865C38.1832 44.3367 38.3579 44.3356 38.5224 44.3832C38.8627 44.5022 39.1542 44.7304 39.3513 45.0322C39.5843 45.3271 39.7082 45.0322 39.8586 44.9437C40.0091 44.8552 40.186 44.7608 40.0002 44.5366C39.5548 43.9998 39.0799 43.519 38.3189 43.5898C37.1863 43.5898 36.5078 44.3803 36.6524 45.4835C36.7586 46.3123 37.4016 46.7105 37.9679 47.1677C38.4385 47.4977 38.8579 47.8953 39.2127 48.3476C39.3042 48.4751 39.3666 48.6212 39.3954 48.7756C39.4242 48.9299 39.4187 49.0887 39.3793 49.2407C39.3399 49.3927 39.2676 49.5342 39.1674 49.6551C39.0672 49.776 38.9417 49.8734 38.7997 49.9404C38.1508 50.253 37.6022 50.0525 37.0476 49.2502C36.8588 48.9817 36.732 48.9552 36.4577 49.1322C36.1834 49.3091 36.2542 49.4979 36.3899 49.6896C36.5277 49.9011 36.6858 50.0986 36.8618 50.2796C37.2218 50.6359 37.7042 50.8415 38.2105 50.8547C38.7169 50.8678 39.2092 50.6875 39.5873 50.3504C40.4161 49.5746 40.4574 48.5806 39.7229 47.6691C39.2758 47.1733 38.7719 46.7318 38.2216 46.3536Z" fill="#C4C4C4"/>
<path d="M76.5342 47.265C76.551 46.783 76.376 46.3139 76.0476 45.9607C75.7192 45.6074 75.2641 45.3987 74.7822 45.3802C74.0182 45.3212 73.3988 45.6486 72.803 46.3094C72.803 46.0999 72.803 46.0321 72.803 45.9642C72.803 45.7017 72.8324 45.4805 72.4342 45.4805C72.036 45.4805 72.0655 45.7076 72.0685 45.9672C72.0685 47.3889 72.0685 48.8106 72.0685 50.2324C72.0685 50.5008 72.0685 50.7191 72.449 50.7161C72.8295 50.7132 72.8 50.4595 72.8059 50.2117C72.8265 49.3504 72.8265 48.4862 72.8737 47.6249C72.9152 47.1952 73.117 46.7969 73.439 46.5094C73.761 46.2219 74.1795 46.0662 74.6111 46.0734C75.4134 46.0911 75.7762 46.5424 75.7909 47.5983C75.8086 48.5147 75.8086 49.432 75.7909 50.3504C75.7909 50.6453 75.9178 50.7043 76.1803 50.7132C76.4428 50.722 76.546 50.6217 76.5431 50.3445C76.5313 49.318 76.5608 48.2915 76.5342 47.265Z" fill="#C4C4C4"/>
<path d="M56.3382 45.7873C56.353 45.4923 56.1494 45.4923 55.9459 45.4923C55.7424 45.4923 55.5654 45.5071 55.5802 45.7873C55.5979 46.2563 55.5802 46.7223 55.5802 47.1913C55.5802 47.6927 55.5802 48.1971 55.5802 48.7015C55.5707 48.7905 55.5529 48.8784 55.5271 48.964C55.3442 49.7958 54.7779 50.1586 53.7927 50.0761C53.4495 50.0511 53.1294 49.8938 52.8999 49.6373C52.6705 49.3809 52.5495 49.0454 52.5627 48.7015C52.545 47.7655 52.545 46.8305 52.5627 45.8964C52.5627 45.6014 52.5007 45.4717 52.1792 45.4717C51.8577 45.4717 51.7604 45.5424 51.7722 45.864C51.8046 46.8521 51.7722 47.8402 51.8341 48.8136C51.854 49.3478 52.0802 49.8535 52.4653 50.2243C52.8504 50.5951 53.3643 50.802 53.8989 50.8017C55.2056 50.8636 56.0403 50.2353 56.2586 49.0319C56.4267 47.9759 56.2792 46.8786 56.3382 45.7873Z" fill="#C4C4C4"/>
<path d="M89.7516 49.8755C89.1941 49.902 88.6308 49.843 88.0792 49.8932C87.5276 49.9433 87.4627 49.7339 87.4715 49.2619C87.4981 47.5688 87.4715 45.8787 87.4715 44.1856C87.4715 43.8906 87.4952 43.6724 87.0645 43.6871C86.6339 43.7019 86.6899 43.8995 86.6899 44.1679C86.6899 45.1767 86.6899 46.1855 86.6899 47.1913C86.6899 48.1971 86.6899 49.256 86.6899 50.2707C86.6899 50.6011 86.7872 50.7102 87.1205 50.7043C88.0054 50.6866 88.8903 50.6866 89.7752 50.7043C90.0702 50.7043 90.1705 50.6158 90.1705 50.3091C90.1705 50.0023 90.0967 49.8489 89.7516 49.8755Z" fill="#C4C4C4"/>
<path d="M80.6461 48.0437C80.2774 47.7989 79.8703 47.6072 79.5075 47.3476C79.2126 47.1471 79.0031 46.8639 79.2126 46.4804C79.2924 46.3066 79.4372 46.171 79.6158 46.1026C79.7944 46.0343 79.9927 46.0386 80.1682 46.1147C80.374 46.1769 80.562 46.2871 80.7169 46.4362C80.944 46.6545 81.0561 46.4362 81.1918 46.3153C81.3274 46.1943 81.351 46.0468 81.1918 45.9082C80.6874 45.4776 80.124 45.2416 79.4603 45.4333C79.2133 45.4892 78.9891 45.619 78.8179 45.8056C78.6466 45.9922 78.5363 46.2266 78.5017 46.4775C78.4309 46.7765 78.4614 47.0905 78.5885 47.3703C78.7155 47.6501 78.9319 47.8797 79.2037 48.0231C79.5577 48.2355 79.9116 48.439 80.2567 48.6632C80.4065 48.7484 80.5206 48.8848 80.578 49.0473C80.6354 49.2098 80.6324 49.3876 80.5694 49.5481C80.5227 49.7135 80.4209 49.858 80.2809 49.9577C80.141 50.0575 79.9711 50.1065 79.7995 50.0967C79.6475 50.1086 79.4947 50.0885 79.3509 50.0377C79.2071 49.9868 79.0756 49.9065 78.9648 49.8017C78.7819 49.6277 78.6698 49.5422 78.4604 49.8017C78.251 50.0613 78.2923 50.1822 78.5076 50.3681C78.8394 50.6494 79.2532 50.816 79.6874 50.8429C80.0272 50.8615 80.3643 50.7738 80.6519 50.592C80.9394 50.4101 81.1632 50.1432 81.2921 49.8283C81.4191 49.5031 81.4237 49.1428 81.3048 48.8145C81.186 48.4862 80.9519 48.2123 80.6461 48.0437Z" fill="#C4C4C4"/>
<path d="M60.3615 45.5011C59.866 45.5749 59.7303 45.3684 59.7716 44.9112C59.8099 44.5927 59.7716 44.2652 59.7716 43.9437C59.7716 43.6222 59.6595 43.5927 59.397 43.5898C59.1344 43.5868 59.0076 43.6694 59.0224 43.9585C59.043 44.3183 59.0224 44.6782 59.0224 45.0381C59.0224 45.3979 58.9663 45.5513 58.5858 45.5041C58.3616 45.4776 58.1345 45.4422 58.1227 45.8286C58.1109 46.215 58.3587 46.212 58.6065 46.1825C58.9457 46.1412 59.0371 46.2681 59.0224 46.6014C58.9958 47.2119 59.0224 47.8225 59.0224 48.436C59.0224 49.0496 59.0371 49.6955 59.0224 50.3238C59.0224 50.6394 59.1374 50.7132 59.4324 50.722C59.7273 50.7309 59.7716 50.5804 59.7716 50.3297C59.7716 49.1793 59.7981 48.026 59.7539 46.8757C59.7332 46.3329 59.8571 46.0763 60.4382 46.1855C60.8688 46.2651 60.8688 45.9731 60.8187 45.6929C60.7686 45.4127 60.5267 45.4775 60.3615 45.5011Z" fill="#C4C4C4"/>
<path d="M108.482 45.5366C108.078 45.5838 107.939 45.4451 107.978 45.0381C108.016 44.631 107.978 44.283 107.978 43.9054C107.978 43.6104 107.827 43.5927 107.603 43.5927C107.379 43.5927 107.22 43.6311 107.228 43.9143C107.228 44.3066 107.228 44.7048 107.228 45.0941C107.228 45.3891 107.193 45.5749 106.827 45.5336C106.597 45.5041 106.329 45.4363 106.338 45.8669C106.346 46.2976 106.603 46.1884 106.81 46.1619C107.143 46.1294 107.246 46.2386 107.231 46.5778C107.202 47.1677 107.231 47.7576 107.231 48.3476C107.231 48.9375 107.231 49.6041 107.231 50.2324C107.231 50.5273 107.299 50.6483 107.618 50.6483C107.936 50.6483 107.986 50.4861 107.984 50.2147C107.984 49.0348 107.998 47.855 107.984 46.6574C107.984 46.2681 108.057 46.0999 108.476 46.1501C108.688 46.1766 108.986 46.2858 108.989 45.8374C108.992 45.3891 108.697 45.513 108.482 45.5366Z" fill="#C4C4C4"/>
<path d="M49.8961 43.8907C49.8961 43.5957 49.7928 43.4895 49.489 43.4895C49.1852 43.4895 49.0997 43.6311 49.1026 43.9172C49.1026 44.9791 49.1026 46.0409 49.1026 47.1028C49.1026 48.1647 49.1026 49.2266 49.1026 50.2884C49.1026 50.5834 49.1528 50.7191 49.4831 50.7161C49.8135 50.7132 49.8961 50.6276 49.8961 50.3179C49.8882 48.1765 49.8882 46.0341 49.8961 43.8907Z" fill="#C4C4C4"/>
<path d="M62.7182 45.4835C62.3967 45.4835 62.2817 45.5808 62.2876 45.9141C62.3033 47.3693 62.3033 48.8234 62.2876 50.2766C62.2876 50.5981 62.3702 50.7161 62.7094 50.7161C63.0486 50.7161 63.081 50.545 63.0781 50.2825C63.0781 49.5451 63.0781 48.8077 63.0781 48.0732C63.0781 47.3388 63.0781 46.6368 63.0781 45.92C63.084 45.6575 63.0722 45.4746 62.7182 45.4835Z" fill="#C4C4C4"/>
<path d="M92.3651 48.0791C92.3651 47.3624 92.3651 46.6427 92.3651 45.9259C92.3651 45.6722 92.3651 45.4746 92.014 45.4835C91.663 45.4923 91.5687 45.5631 91.5716 45.9082C91.5893 47.3594 91.5863 48.8136 91.5716 50.2678C91.5716 50.5804 91.6394 50.7191 91.9875 50.7161C92.3356 50.7132 92.3651 50.5568 92.3621 50.2855C92.3592 49.554 92.3651 48.8136 92.3651 48.0791Z" fill="#C4C4C4"/>
<path d="M104.644 48.1352C104.644 47.3801 104.644 46.6279 104.644 45.8728C104.644 45.6162 104.606 45.4687 104.299 45.4864C104.058 45.4864 103.892 45.5189 103.895 45.8345C103.907 47.3427 103.907 48.85 103.895 50.3563C103.895 50.6512 104.031 50.7043 104.288 50.7132C104.544 50.722 104.65 50.6188 104.644 50.3445C104.633 49.6071 104.644 48.8726 104.644 48.1352Z" fill="#C4C4C4"/>
<path d="M91.9816 43.3951C91.9041 43.3965 91.8276 43.4131 91.7566 43.444C91.6855 43.4749 91.6213 43.5195 91.5674 43.5752C91.5136 43.6309 91.4713 43.6967 91.4429 43.7688C91.4145 43.8409 91.4006 43.9179 91.4019 43.9954C91.4033 44.0728 91.4199 44.1493 91.4508 44.2203C91.4817 44.2914 91.5263 44.3557 91.582 44.4095C91.6378 44.4633 91.7036 44.5056 91.7757 44.534C91.8477 44.5624 91.9247 44.5763 92.0022 44.575C92.3857 44.5602 92.5361 44.3361 92.5626 43.985C92.5663 43.9073 92.5539 43.8297 92.5261 43.7571C92.4984 43.6844 92.4558 43.6183 92.4013 43.5628C92.3467 43.5074 92.2812 43.4639 92.209 43.435C92.1367 43.4062 92.0593 43.3926 91.9816 43.3951Z" fill="#C4C4C4"/>
<path d="M62.7212 43.3981C62.6405 43.3898 62.5589 43.3992 62.4822 43.4255C62.4054 43.4519 62.3353 43.4946 62.2767 43.5507C62.2181 43.6068 62.1724 43.6749 62.1427 43.7504C62.113 43.8259 62.1 43.907 62.1047 43.988C62.1006 44.0656 62.1132 44.1432 62.1417 44.2155C62.1702 44.2879 62.2139 44.3532 62.2698 44.4072C62.3257 44.4612 62.3926 44.5025 62.4659 44.5284C62.5392 44.5543 62.6172 44.5641 62.6946 44.5573C63.0722 44.5573 63.2491 44.3537 63.2845 43.929C63.2838 43.8567 63.2685 43.7853 63.2396 43.7191C63.2106 43.6528 63.1685 43.5931 63.1159 43.5436C63.0633 43.494 63.0012 43.4555 62.9334 43.4305C62.8656 43.4055 62.7934 43.3945 62.7212 43.3981Z" fill="#C4C4C4"/>
<path d="M104.323 43.3981C104.241 43.3862 104.158 43.393 104.079 43.4179C104 43.4428 103.928 43.4852 103.868 43.5419C103.808 43.5987 103.761 43.6683 103.732 43.7455C103.702 43.8227 103.69 43.9056 103.698 43.988C103.692 44.0649 103.704 44.142 103.731 44.2141C103.758 44.2863 103.8 44.3518 103.854 44.4063C103.909 44.4608 103.974 44.503 104.047 44.5301C104.119 44.5571 104.196 44.5684 104.273 44.5632C104.347 44.5739 104.422 44.5684 104.494 44.5471C104.565 44.5258 104.631 44.4892 104.688 44.4398C104.744 44.3904 104.788 44.3295 104.819 44.2612C104.849 44.1928 104.864 44.1187 104.863 44.044C104.86 43.6547 104.668 43.4187 104.323 43.3981Z" fill="#C4C4C4"/>
</g>
<defs>
<clipPath id="clip0">
<rect width="123" height="50.8488" fill="white"/>
</clipPath>
</defs>
</svg>
