<?xml version="1.0" encoding="utf-8"?>
<!-- Generator: Adobe Illustrator 24.0.3, SVG Export Plug-In . SVG Version: 6.00 Build 0)  -->
<svg width="109" height="174" viewBox="0 0 109 31" fill="none" xmlns="http://www.w3.org/2000/svg">
<path d="M97.8237 0.506843C97.8237 0.91233 97.9758 1.0137 98.584 1.0137H99.3443V3.42128C99.3443 5.82886 99.3443 5.82886 99.9779 5.82886C100.611 5.82886 100.611 5.82886 100.611 3.44662V1.03904L101.448 0.963016C101.955 0.91233 102.259 0.760273 102.259 0.506843C102.259 0.202728 101.803 0.101356 100.054 0.0506701C97.9504 -0.0253587 97.8237 -1.57356e-05 97.8237 0.506843Z" fill="#C4C4C4"/>
<path d="M102.639 2.91444C102.639 5.62614 102.664 5.82888 103.146 5.82888C103.577 5.82888 103.627 5.62614 103.703 4.00419L103.779 2.15415L104.514 4.00419C105.604 6.69054 105.959 6.53848 107.353 2.78773C107.682 1.92607 107.682 1.95141 107.708 3.85213C107.708 5.80354 107.708 5.82888 108.341 5.82888H109L108.924 2.96513L108.848 0.126719L108.189 0.0506897C107.581 -0.0253391 107.429 0.152061 106.567 1.95141C105.781 3.5987 105.579 3.85213 105.427 3.4213C105.3 3.14253 104.945 2.25553 104.641 1.44455C104.134 0.152061 103.982 3.8147e-06 103.349 3.8147e-06H102.639V2.91444Z" fill="#C4C4C4"/>
<path d="M86.901 6.31044C86.4448 6.66525 86.3181 7.09608 86.2167 8.31254L86.1153 9.85846L84.6961 9.93448C83.1249 10.0105 82.5166 10.5427 83.0235 11.3283C83.2769 11.7338 83.9865 11.8099 89.9421 11.9112C96.5566 12.0379 96.6073 12.0379 97.0888 12.6462C97.545 13.2037 97.5703 13.7359 97.5703 20.4518C97.5703 28.7136 97.5197 28.967 95.847 29.2458C94.884 29.3979 94.5292 29.7527 94.5292 30.5636C94.5292 30.8171 94.884 30.9184 95.9991 30.9184C97.545 30.8931 97.9251 30.7157 98.7868 29.4739C99.3444 28.7136 99.3444 28.5362 99.3444 20.6545C99.3444 15.2312 99.243 12.4688 99.0656 12.0886C98.5334 11.0496 97.4943 10.1372 96.8354 10.1372C96.2018 10.1372 96.1765 10.0865 96.1765 8.46459C96.1765 5.95564 95.9484 5.82893 91.2346 5.82893C87.9654 5.82893 87.4078 5.87961 86.901 6.31044ZM94.2758 8.89542V9.8838H91.2346H88.1935V8.79405V7.72965L91.2346 7.80568L94.2758 7.88171V8.89542Z" fill="#C4C4C4"/>
<path d="M0 19.8689V29.1698L1.85003 29.0938L3.67473 29.0177V26.6102V24.2026L6.8426 24.0759C9.70635 23.9492 10.1625 23.8731 11.6831 23.1635C14.2174 21.9471 15.4592 20.021 15.4592 17.2586C15.4592 15.3326 14.4708 13.3558 13.0516 12.3674C11.1002 11.0243 10.1372 10.8215 4.89119 10.6948L0 10.5934V19.8689ZM10.7961 15.2819C11.4804 16.0168 11.6578 16.4223 11.6578 17.2333C11.6578 19.7929 10.1625 20.7559 6.20902 20.7813H3.67473V17.4614V14.1414L6.81725 14.2428L9.93443 14.3442L10.7961 15.2819Z" fill="#C4C4C4"/>
<path d="M66.3731 13.635C64.4724 14.2685 63.5347 14.8514 62.521 16.0679C60.747 18.222 60.6963 18.3487 60.6963 21.4152C60.6963 24.0002 60.747 24.279 61.3805 25.3687C62.3182 26.94 64.4217 28.8154 65.7142 29.1955C66.8546 29.5503 70.8081 29.6517 71.1122 29.3476C71.2136 29.2462 71.1122 28.5873 70.8842 27.8777C70.5547 26.9147 70.5294 26.4585 70.7321 26.0023C71.0109 25.3941 71.9232 24.8365 72.6075 24.8365C72.8102 24.8365 72.9876 24.6591 72.9876 24.431C72.9876 24.1523 72.8356 24.0762 72.4301 24.2283C71.1883 24.5831 70.3013 25.0393 69.9718 25.4194C69.6423 25.8249 69.6677 27.1934 70.0478 28.2578C70.1239 28.5366 69.8704 28.0804 69.4396 27.2441C68.8821 26.129 68.6793 25.4194 68.7047 24.5831C68.73 23.9495 68.73 23.2906 68.7047 23.1132C68.654 22.581 68.2231 22.7838 67.9697 23.4934C67.8177 23.8988 67.5389 24.431 67.3108 24.7098C66.9307 25.1913 66.9053 25.1913 67.1587 24.4817C67.3108 24.0762 67.3361 23.6454 67.2094 23.468C66.8039 22.9105 66.3478 21.1111 66.3224 19.844C66.2717 18.6782 66.2211 18.5261 65.7649 18.6275C64.5484 18.8809 63.6107 18.957 63.6107 18.7542C63.6107 18.6529 64.0162 18.1967 64.5231 17.7405C65.182 17.183 65.5368 17.0309 65.7142 17.2083C66.0436 17.5378 66.3985 17.5631 66.3985 17.259C66.3985 16.8028 66.9307 15.637 67.0574 15.7891C67.1334 15.8651 67.0574 16.1692 66.9053 16.4987C66.1704 17.8419 69.1862 21.1871 72.6328 22.8091C74.128 23.5187 75.6486 24.9126 75.3952 25.3434C75.3192 25.4448 75.4712 25.4954 75.7247 25.4194C76.713 25.166 77.1439 21.0604 76.4089 18.6782C75.2431 14.8261 70.3013 12.3425 66.3731 13.635Z" fill="#C4C4C4"/>
<path d="M83.1503 13.6853C80.3879 14.699 78.9687 16.0675 78.0057 18.5511C76.9919 21.2628 77.6762 25.191 79.4755 26.8889C79.805 27.1931 80.0077 27.5479 79.9317 27.6746C79.8557 27.8013 79.881 27.852 80.0077 27.8266C80.1091 27.8013 80.6667 28.0547 81.2242 28.4349C83.3023 29.778 87.0277 30.0061 89.3086 28.891C90.7532 28.2068 92.223 26.7369 93.1354 25.0643C93.8196 23.8478 93.8957 23.4677 93.8957 21.5416C93.8957 19.134 93.4902 18.0696 91.7922 15.9915C89.9168 13.6853 85.9887 12.6209 83.1503 13.6853ZM88.4976 17.2079C89.9675 18.2217 90.5757 19.3621 90.6771 21.2628C90.7531 23.2903 90.1703 24.5321 88.4976 25.6978C87.5599 26.3567 87.1545 26.4835 85.8366 26.4835C82.8715 26.4835 80.8441 24.6841 80.6413 21.8457C80.4893 19.6662 81.4776 17.9429 83.5051 16.8531C84.6455 16.2449 87.3572 16.4223 88.4976 17.2079Z" fill="#C4C4C4"/>
<path d="M20.6545 14.0911C19.8182 14.3191 18.7792 14.7753 18.3483 15.1048C17.9175 15.4342 17.4613 15.6116 17.36 15.5103C17.2332 15.4089 17.2332 15.4596 17.3093 15.6116C17.4106 15.7637 17.2586 16.0931 17.0052 16.3212C15.9914 17.2589 15.3325 19.261 15.3325 21.5419C15.3325 23.3919 15.4339 23.8988 16.0421 25.1406C16.4223 25.9262 17.0305 26.7372 17.3853 26.9653C17.7148 27.1934 17.9428 27.4975 17.8668 27.6495C17.7654 27.7762 17.7908 27.8523 17.9175 27.8269C18.0189 27.8016 18.8045 28.1057 19.6155 28.5112C21.0093 29.1954 21.3641 29.2461 23.6703 29.2461C25.5964 29.2208 26.4581 29.1194 27.117 28.7646C28.4602 28.0804 29.6513 27.1427 29.6513 26.7372C29.6513 26.5344 29.2458 25.9262 28.7643 25.3687L27.8773 24.4056L26.4581 25.1152C24.7348 26.0022 22.9607 26.0783 21.3895 25.3687C20.4011 24.9125 19.2607 23.696 19.2607 23.0878C19.2607 22.8851 21.0347 22.809 25.0896 22.809H30.9184V21.6686C30.9184 21.0604 30.665 19.7679 30.3609 18.8302C29.6766 16.7267 27.8773 14.75 26.2046 14.2431C24.4053 13.7109 22.3018 13.6602 20.6545 14.0911ZM25.6724 17.8165C26.154 18.1713 26.6862 18.8302 26.8129 19.261L27.0916 20.0213H23.1635C18.7538 20.0213 18.6524 19.9706 20.0717 18.3487C21.1107 17.1575 21.6176 16.9801 23.3662 17.0562C24.4306 17.1069 25.0135 17.3096 25.6724 17.8165Z" fill="#C4C4C4"/>
<path d="M36.6206 14.0658C35.9363 14.2686 35.2774 14.4206 35.1761 14.446C35.1 14.446 34.3904 15.0289 33.6048 15.7385C31.8561 17.3351 31.1719 18.9824 31.1719 21.542C31.1719 24.8873 32.6164 27.1681 35.7083 28.6887C37.3049 29.4743 41.4358 29.4743 43.0831 28.7141C44.1475 28.2325 45.6174 27.0414 45.6174 26.6866C45.6174 26.6106 45.2119 26.053 44.7303 25.4448L43.8433 24.3551L42.4241 25.1154C39.8645 26.4585 36.7473 25.901 35.5562 23.8736L34.9226 22.8092H40.7515C46.3523 22.8092 46.6057 22.7838 46.7578 22.3023C47.0112 21.466 46.6057 19.4892 45.8454 17.8419C44.8824 15.7892 43.4885 14.6487 41.2837 14.0912C39.307 13.6097 38.3186 13.6097 36.6206 14.0658ZM41.3597 17.6138C42.044 18.146 42.8296 19.2611 42.8296 19.7427C42.8296 19.9454 41.5878 20.0214 38.9015 20.0214C35.2774 20.0214 34.9987 19.9961 35.1507 19.5653C35.4802 18.6783 36.3418 17.6645 37.1021 17.3351C38.1919 16.8282 40.5234 17.0056 41.3597 17.6138Z" fill="#C4C4C4"/>
<path d="M48.3542 13.8624C47.1124 13.9131 46.124 14.0145 46.124 14.0905C46.124 14.1919 46.3775 14.572 46.7069 14.9775C47.011 15.3577 47.8474 16.4474 48.5316 17.3597C49.2412 18.2721 50.2042 19.5392 50.7365 20.1728L51.6488 21.3386L49.9762 23.4927C49.0385 24.6839 48.1008 25.9003 47.898 26.1791C47.6953 26.4832 47.1631 27.1928 46.7069 27.725C46.2507 28.2826 45.8706 28.8148 45.8706 28.9415C45.8706 29.0428 46.8083 29.1442 47.9741 29.1442L50.0522 29.1189L50.8632 28.0545C52.992 25.2667 53.7776 24.3037 53.8536 24.3797C54.5379 25.1907 56.2866 27.4716 56.7681 28.1812L57.4016 29.1442H59.6318C62.1408 29.1442 62.0901 29.2202 60.5188 27.1928C60.0627 26.6099 58.8462 25.0387 57.8325 23.6955L55.9571 21.2626L56.9201 20.0968C57.8578 18.9564 59.6318 16.6501 60.7723 15.1042C61.0764 14.6734 61.3298 14.2426 61.3298 14.1159C61.3298 14.0145 60.3921 13.9384 59.2517 13.9891L57.1736 14.0652L56.2866 15.3577C55.7797 16.0673 55.0194 17.081 54.6139 17.5878L53.8283 18.5509L52.2063 16.3207C51.294 15.1042 50.5844 14.0145 50.6351 13.8878C50.6604 13.7864 50.6604 13.7104 50.6351 13.7357C50.5844 13.761 49.5707 13.8371 48.3542 13.8624Z" fill="#C4C4C4"/>
</svg>

